HIERARCHY
ROOT Hips
{
	OFFSET 0.00000 0.00000 0.00000
	CHANNELS 6 Xposition Yposition Zposition Zrotation Yrotation Xrotation 
	JOINT LHipJoint
	{
		OFFSET 0 0 0
		CHANNELS 3 Zrotation Yrotation Xrotation
		JOINT LeftUpLeg
		{
			OFFSET 1.64577 -1.42384 0.94276
			CHANNELS 3 Zrotation Yrotation Xrotation
			JOINT LeftLeg
			{
				OFFSET 2.11538 -5.81197 0.00000
				CHANNELS 3 Zrotation Yrotation Xrotation
				JOINT LeftFoot
				{
					OFFSET 2.36541 -6.49893 0.00000
					CHANNELS 3 Zrotation Yrotation Xrotation
					JOINT LeftToeBase
					{
						OFFSET 0.17759 -0.48793 1.73865
						CHANNELS 3 Zrotation Yrotation Xrotation
						End Site
						{
							OFFSET 0.00000 -0.00000 0.91205
						}
					}
				}
			}
		}
	}
	JOINT RHipJoint
	{
		OFFSET 0 0 0
		CHANNELS 3 Zrotation Yrotation Xrotation
		JOINT RightUpLeg
		{
			OFFSET -1.43750 -1.42384 0.94276
			CHANNELS 3 Zrotation Yrotation Xrotation
			JOINT RightLeg
			{
				OFFSET -2.10480 -5.78291 0.00000
				CHANNELS 3 Zrotation Yrotation Xrotation
				JOINT RightFoot
				{
					OFFSET -2.34880 -6.45329 0.00000
					CHANNELS 3 Zrotation Yrotation Xrotation
					JOINT RightToeBase
					{
						OFFSET -0.22842 -0.62757 1.80469
						CHANNELS 3 Zrotation Yrotation Xrotation
						End Site
						{
							OFFSET -0.00000 -0.00000 0.95886
						}
					}
				}
			}
		}
	}
	JOINT LowerBack
	{
		OFFSET 0 0 0
		CHANNELS 3 Zrotation Yrotation Xrotation
		JOINT Spine
		{
			OFFSET 0.06217 1.93758 -0.49272
			CHANNELS 3 Zrotation Yrotation Xrotation
			JOINT Spine1
			{
				OFFSET -0.03114 2.03621 -0.05830
				CHANNELS 3 Zrotation Yrotation Xrotation
				JOINT Neck
				{
					OFFSET 0 0 0
					CHANNELS 3 Zrotation Yrotation Xrotation
					JOINT Neck1
					{
						OFFSET 0.04421 1.41010 0.26562
						CHANNELS 3 Zrotation Yrotation Xrotation
						JOINT Head
						{
							OFFSET -0.13407 1.43847 0.06181
							CHANNELS 3 Zrotation Yrotation Xrotation
							End Site
							{
								OFFSET -0.04980 1.45844 -0.00689
							}
						}
					}
				}
				JOINT LeftShoulder
				{
					OFFSET 0 0 0
					CHANNELS 3 Zrotation Yrotation Xrotation
					JOINT LeftArm
					{
						OFFSET 2.18382 1.47753 -0.35694
						CHANNELS 3 Zrotation Yrotation Xrotation
						JOINT LeftForeArm
						{
							OFFSET 5.05460 -0.00000 0.00000
							CHANNELS 3 Zrotation Yrotation Xrotation
							JOINT LeftHand
							{
								OFFSET 3.39013 -0.00000 0.00000
								CHANNELS 3 Zrotation Yrotation Xrotation
								JOINT LeftFingerBase
								{
									OFFSET 0 0 0
									CHANNELS 3 Zrotation Yrotation Xrotation
									JOINT LeftHandIndex1
									{
										OFFSET 0.57242 -0.00000 -0.00000
										CHANNELS 3 Zrotation Yrotation Xrotation
										End Site
										{
											OFFSET 0.46150 -0.00000 -0.00000
										}
									}
								}
								JOINT LThumb
								{
									OFFSET 0 0 0
									CHANNELS 3 Zrotation Yrotation Xrotation
									End Site
									{
										OFFSET 0.46855 -0.00000 0.46855
									}
								}
							}
						}
					}
				}
				JOINT RightShoulder
				{
					OFFSET 0 0 0
					CHANNELS 3 Zrotation Yrotation Xrotation
					JOINT RightArm
					{
						OFFSET -2.06033 1.72839 -0.47437
						CHANNELS 3 Zrotation Yrotation Xrotation
						JOINT RightForeArm
						{
							OFFSET -5.07010 -0.00000 0.00000
							CHANNELS 3 Zrotation Yrotation Xrotation
							JOINT RightHand
							{
								OFFSET -3.14957 -0.00000 -0.00000
								CHANNELS 3 Zrotation Yrotation Xrotation
								JOINT RightFingerBase
								{
									OFFSET 0 0 0
									CHANNELS 3 Zrotation Yrotation Xrotation
									JOINT RightHandIndex1
									{
										OFFSET -0.71819 -0.00000 -0.00000
										CHANNELS 3 Zrotation Yrotation Xrotation
										End Site
										{
											OFFSET -0.57902 -0.00000 -0.00000
										}
									}
								}
								JOINT RThumb
								{
									OFFSET 0 0 0
									CHANNELS 3 Zrotation Yrotation Xrotation
									End Site
									{
										OFFSET -0.58786 -0.00000 0.58786
									}
								}
							}
						}
					}
				}
			}
		}
	}
}
MOTION
Frames: 7
Frame Time: .0083333
-25.9774 15.0002 1.5173 0 0 0 0 0 0 -21 0 0 0 0 0 0 0 0 0 0 0 0 0 0 21 0 0 0 0 0 0 0 0 0 0 0 0 0 0 0 0 0 0 0 0 0 0 -16 0 0 21 0 0 11 0 0 0 -8 0 0 0 0 0 0 0 0 0 0 0 0 0 0 0 0 0 0 0 0 8 0 0 0 0 0 0 0 0 0 0 0 0 0 0 0 0 0
-25.9774 15.0002 1.5173 -178.5240 4.2857 175.9040 0.0000 0.0000 0.0000 -20.4941 -13.6600 -1.8179 2.8145 10.3885 30.2443 1.2128 13.2407 -29.3563 0.1257 -2.2859 -6.2965 0.0000 0.0000 0.0000 22.9531 12.2614 -2.8231 -2.6728 -10.1455 29.4494 -2.1019 -13.7335 -35.1329 -1.3132 7.2586 -20.4838 -0.1891 1.0886 6.9875 -0.8642 2.0766 6.4328 -0.8640 1.3143 2.7599 6.3726 3.8834 -6.3321 -4.7434 4.7963 0.9660 -2.4676 2.3134 1.7087 0.0000 0.0000 0.0000 -84.9775 -1.5956 30.0156 16.5289 -26.2325 -3.8768 -0.0000 -0.0000 0.8580 19.3680 7.6019 2.6625 -7.1250 0.0000 -0.0000 -6.3830 37.9612 1.1116 0.0000 0.0000 0.0000 86.7984 3.4755 36.9306 -18.4834 28.7717 -4.7796 0.0000 -0.0000 -18.3426 -18.6512 -2.3823 0.8038 7.1250 -0.0000 -0.0000 6.4111 -32.4492 1.9810
-25.9797 15.0037 1.5188 -178.5510 4.2472 175.7890 0.0000 0.0000 0.0000 -20.5529 -13.9353 -1.5179 2.8167 10.3922 30.2565 1.4964 11.9449 -30.1408 0.0090 -0.6129 -1.6841 0.0000 0.0000 0.0000 22.8694 11.9514 -2.8329 -2.6742 -10.1480 29.4574 -2.0722 -13.6632 -34.9168 -1.3615 7.3855 -20.8625 -0.2139 1.0753 7.2037 -0.8652 2.0706 6.4768 -0.8567 1.3165 2.6856 6.3295 3.8907 -6.3608 -4.7182 4.8070 0.9779 -2.4503 2.3187 1.7159 0.0000 0.0000 0.0000 -84.9212 -1.5850 30.1276 16.5790 -26.2995 -3.8990 -0.0000 -0.0000 0.6678 20.0101 9.3834 3.3979 -7.1250 0.0000 -0.0000 -6.0791 39.8831 0.7700 0.0000 0.0000 0.0000 86.7429 3.4438 36.9863 -18.6205 28.9444 -4.8458 0.0000 -0.0000 -18.4417 -18.4404 -2.1152 0.7051 7.1250 -0.0000 -0.0000 6.5574 -32.1640 2.0720
-25.9800 15.0005 1.5224 -178.6050 4.2517 175.7870 0.0000 0.0000 0.0000 -20.6006 -13.6550 -1.6696 2.8053 10.3730 30.1932 1.2627 12.9378 -29.4255 0.1191 -2.2250 -6.1279 0.0000 0.0000 0.0000 22.7567 11.8070 -3.0126 -2.6982 -10.1897 29.5932 -2.0669 -13.4420 -34.7187 -1.3661 7.3975 -20.8986 -0.3102 1.0813 7.3433 -0.8457 2.0756 6.4700 -0.7876 1.3164 2.5976 6.2693 3.8872 -6.2238 -4.7440 4.8117 0.8477 -2.4498 2.3206 1.6480 0.0000 -0.0000 0.0000 -84.8996 -1.5168 30.2588 16.6534 -26.3986 -3.9320 -0.0000 -0.0000 0.4581 20.1702 10.1669 3.7099 -7.1250 0.0000 -0.0000 -6.0574 40.7220 0.6417 0.0000 -0.0000 0.0000 86.6717 3.3292 37.0213 -18.7887 29.1552 -4.9275 0.0000 -0.0000 -18.4469 -18.4034 -2.2633 0.7528 7.1250 -0.0000 -0.0000 6.6000 -32.3182 2.0610
-25.9816 15.0000 1.5270 -178.7260 4.2246 175.7740 0.0000 0.0000 0.0000 -20.7155 -13.5697 -1.7339 2.8029 10.3690 30.1800 1.2230 13.0643 -29.2688 0.1311 -2.3340 -6.4295 0.0000 0.0000 0.0000 22.5816 11.6979 -3.1343 -2.7134 -10.2160 29.6790 -2.0561 -13.4633 -34.6752 -1.4025 7.4912 -21.1791 -0.4221 1.0572 7.4936 -0.8794 2.0538 6.5346 -0.7619 1.3091 2.5799 6.2564 3.8315 -6.2344 -4.8089 4.8096 0.6657 -2.4685 2.3559 1.5912 0.0000 -0.0000 0.0000 -84.8567 -1.5930 30.2865 16.7410 -26.5151 -3.9710 -0.0000 -0.0000 0.3626 19.7894 8.7984 3.1502 -7.1250 0.0000 -0.0000 -6.1858 39.2496 0.8804 0.0000 -0.0000 0.0000 86.5391 3.3795 37.3501 -18.9796 29.3933 -5.0208 0.0000 -0.0000 -18.7876 -18.4569 -2.2543 0.7521 7.1250 -0.0000 -0.0000 6.5562 -32.3101 2.0484
-25.9844 14.9995 1.5323 -178.7240 4.2077 175.7620 0.0000 0.0000 0.0000 -20.6979 -13.4849 -1.8110 2.8056 10.3735 30.1949 1.1927 13.1222 -29.1137 0.1476 -2.4762 -6.8235 0.0000 0.0000 0.0000 22.5248 11.5405 -3.2767 -2.7296 -10.2439 29.7703 -2.0422 -13.3930 -34.5447 -1.4300 7.5612 -21.3890 -0.3754 1.0359 7.6815 -0.8870 2.0389 6.5744 -0.8001 1.3090 2.5195 6.1796 3.8201 -6.1876 -4.8109 4.8029 0.4763 -2.4564 2.3539 1.5182 -0.0000 -0.0000 0.0000 -84.7763 -1.6220 30.4056 16.8445 -26.6523 -4.0173 -0.0000 -0.0000 0.1794 19.5433 8.1624 2.8852 -7.1250 0.0000 -0.0000 -6.3087 38.5623 1.0051 -0.0000 -0.0000 0.0000 86.4584 3.3869 37.5559 -19.1643 29.6223 -5.1118 0.0000 -0.0000 -18.9961 -18.4980 -2.2535 0.7537 7.1250 -0.0000 -0.0000 6.5231 -32.3104 2.0379
-25.9887 14.9990 1.5397 -178.6630 4.1994 175.7700 0.0000 0.0000 0.0000 -20.6010 -13.3765 -1.9738 2.8209 10.3993 30.2796 1.1668 13.1282 -28.9415 0.1630 -2.6009 -7.1696 0.0000 0.0000 0.0000 22.5223 11.3828 -3.4220 -2.7368 -10.2563 29.8107 -2.0186 -13.3458 -34.3768 -1.4602 7.6372 -21.6176 -0.2166 1.0055 7.9090 -0.8954 2.0186 6.6130 -0.9028 1.3107 2.4395 6.0573 3.8020 -6.1271 -4.7917 4.7908 0.2089 -2.4295 2.3504 1.4150 -0.0000 0.0000 0.0000 -84.6573 -1.6553 30.5592 16.9964 -26.8531 -4.0857 -0.0000 0.0000 -0.0620 19.1548 7.4271 2.5709 -7.1250 0.0000 -0.0000 -6.5410 37.7635 1.1712 -0.0000 0.0000 0.0000 86.3882 3.3936 37.7823 -19.3910 29.9017 -5.2244 0.0000 -0.0000 -19.1897 -18.6095 -2.1834 0.7350 7.1250 -0.0000 -0.0000 6.4277 -32.2396 2.0188
